<?xml version="1.0" standalone="no"?>
<!DOCTYPE svg PUBLIC "-//W3C//DTD SVG 20010904//EN"
 "http://www.w3.org/TR/2001/REC-SVG-20010904/DTD/svg10.dtd">
<svg version="1.0" xmlns="http://www.w3.org/2000/svg"
 width="512.000000pt" height="512.000000pt" viewBox="0 0 512.000000 512.000000"
 preserveAspectRatio="xMidYMid meet">

<g transform="translate(0.000000,512.000000) scale(0.100000,-0.100000)"
fill="#000000" stroke="none">
<path d="M199 4182 c-194 -101 -191 -369 6 -475 l40 -22 2315 0 2315 0 41 22
c197 105 198 380 2 477 l-52 26 -2307 0 -2307 0 -53 -28z"/>
<path d="M1327 2819 c-76 -18 -141 -69 -180 -143 -30 -58 -30 -174 0 -232 29
-54 79 -102 133 -128 l45 -21 1770 0 1770 0 47 23 c55 28 110 85 134 139 22
50 22 156 0 206 -24 54 -79 111 -134 139 l-47 23 -1750 2 c-1005 0 -1766 -3
-1788 -8z"/>
<path d="M250 1431 c-117 -36 -193 -137 -193 -256 0 -105 54 -194 145 -239
l52 -26 2306 0 2306 0 52 26 c196 97 195 372 -2 477 l-41 22 -2300 2 c-1265 1
-2311 -2 -2325 -6z"/>
</g>
</svg>
